<?xml version="1.0" standalone="no"?>
<!DOCTYPE svg PUBLIC "-//W3C//DTD SVG 20010904//EN"
 "http://www.w3.org/TR/2001/REC-SVG-20010904/DTD/svg10.dtd">
<svg version="1.0" xmlns="http://www.w3.org/2000/svg"
 width="512.000000pt" height="512.000000pt" viewBox="0 0 512.000000 512.000000"
 preserveAspectRatio="xMidYMid meet">
<metadata>
Created by potrace 1.11, written by Peter Selinger 2001-2013
</metadata>
<g transform="translate(0.000000,512.000000) scale(0.100000,-0.100000)"
fill="#000000" stroke="none">
<path d="M0 2560 l0 -2560 2560 0 2560 0 0 2560 0 2560 -2560 0 -2560 0 0
-2560z m1890 1378 l0 -171 248 6 c136 4 437 7 670 7 l422 0 0 165 0 165 170 0
170 0 0 -169 0 -169 133 -4 c114 -3 138 -7 175 -27 66 -34 128 -97 159 -160
l28 -56 0 -995 0 -995 -27 -51 c-35 -67 -125 -148 -186 -168 -43 -15 -176 -16
-1307 -14 l-1260 3 -50 24 c-63 32 -131 99 -158 159 l-22 47 0 1000 0 1000 28
53 c71 135 186 192 383 192 l84 0 0 165 0 165 170 0 170 0 0 -172z"/>
<path d="M2750 3515 l0 -155 40 0 40 0 0 155 0 155 -40 0 -40 0 0 -155z"/>
<path d="M2890 3645 c0 -22 4 -25 40 -25 36 0 40 3 40 25 0 23 -4 25 -40 25
-36 0 -40 -2 -40 -25z"/>
<path d="M2150 3505 l0 -145 44 0 45 0 3 48 3 47 59 5 c48 4 62 10 82 33 32
38 32 86 -2 126 -26 31 -26 31 -130 31 l-104 0 0 -145z m160 66 c13 -25 -13
-53 -44 -49 -16 2 -22 11 -24 36 -3 30 -1 32 27 32 20 0 34 -7 41 -19z"/>
<path d="M2493 3571 c-35 -22 -46 -46 -45 -103 1 -75 42 -108 132 -108 88 0
138 70 110 155 -23 70 -126 99 -197 56z m102 -45 c37 -27 18 -116 -24 -116
-28 0 -41 22 -41 67 0 29 5 45 18 52 22 14 25 13 47 -3z"/>
<path d="M2890 3475 l0 -115 40 0 40 0 0 115 0 115 -40 0 -40 0 0 -115z"/>
<path d="M2000 3195 l0 -155 45 0 45 0 0 155 0 155 -45 0 -45 0 0 -155z"/>
<path d="M1700 3185 l0 -145 45 0 45 0 0 50 0 50 55 0 c46 0 60 4 80 25 35 34
35 106 0 140 -22 23 -31 25 -125 25 l-100 0 0 -145z m144 79 c35 -14 11 -64
-31 -64 -20 0 -23 5 -23 35 0 36 15 44 54 29z"/>
<path d="M2190 3263 c-24 -9 -50 -35 -50 -50 0 -17 63 -18 90 -1 15 9 25 10
37 2 33 -21 24 -32 -33 -39 -88 -11 -126 -59 -88 -114 15 -20 22 -22 73 -17
72 7 77 7 134 0 45 -6 47 -5 47 19 0 14 -7 27 -15 31 -11 4 -15 22 -15 69 0
83 -17 100 -103 104 -34 1 -69 0 -77 -4z m100 -136 c0 -20 -22 -37 -47 -37
-16 0 -23 6 -23 19 0 11 6 22 13 24 24 10 57 7 57 -6z"/>
<path d="M2430 3155 l0 -115 40 0 40 0 0 59 c0 80 13 113 43 109 20 -3 22 -9
25 -85 l3 -83 46 0 46 0 -5 97 c-5 85 -8 99 -28 115 -27 22 -79 23 -106 3 -25
-19 -34 -19 -34 0 0 10 -11 15 -35 15 l-35 0 0 -115z"/>
<path d="M2720 3155 l0 -115 40 0 39 0 3 76 c3 81 17 104 52 91 13 -5 16 -22
16 -87 l0 -80 40 0 40 0 0 95 c0 82 -3 98 -20 115 -24 24 -78 26 -106 5 -25
-19 -34 -19 -34 0 0 10 -11 15 -35 15 l-35 0 0 -115z"/>
<path d="M3054 3255 c-17 -9 -36 -27 -43 -41 -14 -31 -14 -99 -1 -125 16 -29
64 -49 120 -49 72 0 120 28 120 71 0 16 -77 10 -84 -6 -7 -18 -57 -20 -74 -3
-30 30 -13 38 74 38 l87 0 -6 37 c-9 56 -45 85 -109 90 -35 2 -63 -2 -84 -12z
m106 -55 c10 -19 8 -20 -35 -20 -46 0 -54 7 -33 28 19 19 56 14 68 -8z"/>
<path d="M3290 3155 l0 -115 40 0 40 0 1 48 c2 75 11 96 47 107 28 8 32 14 32
42 0 28 -3 33 -24 33 -14 0 -31 -7 -40 -15 -8 -8 -17 -15 -20 -15 -3 0 -6 7
-6 15 0 10 -11 15 -35 15 l-35 0 0 -115z"/>
<path d="M1390 2280 l0 -650 1170 0 1170 0 0 650 0 650 -1170 0 -1170 0 0
-650z m2010 -115 l0 -205 -420 0 -420 0 0 205 0 205 420 0 420 0 0 -205z"/>
<path d="M2641 2308 c-1 -21 4 -28 17 -28 11 0 13 3 6 8 -7 4 -14 16 -17 27
-4 15 -5 14 -6 -7z"/>
<path d="M2680 2303 c0 -16 6 -23 20 -23 14 0 20 6 19 23 -1 18 -2 18 -6 4 -5
-18 -5 -18 -19 0 -13 17 -13 17 -14 -4z"/>
<path d="M2731 2298 c0 -22 1 -22 8 -3 l8 20 5 -20 c5 -18 6 -18 7 3 1 13 -5
22 -14 22 -9 0 -15 -9 -14 -22z"/>
<path d="M2775 2311 c-8 -15 3 -31 21 -31 9 0 14 7 12 17 -4 20 -24 28 -33 14z"/>
<path d="M2827 2313 c-13 -12 -7 -33 8 -33 8 0 15 9 15 20 0 20 -11 26 -23 13z"/>
<path d="M2654 2187 c-72 -66 -50 -174 43 -206 126 -44 218 115 119 206 -29
27 -44 33 -81 33 -37 0 -52 -6 -81 -33z m118 -88 l17 -46 -54 0 c-52 0 -53 0
-44 23 5 13 14 36 19 50 15 38 42 27 62 -27z"/>
<path d="M2893 2107 c-11 -23 -10 -25 13 -23 28 1 29 5 11 30 -12 17 -14 16
-24 -7z"/>
<path d="M2942 2105 c0 -16 2 -22 5 -12 2 9 2 23 0 30 -3 6 -5 -1 -5 -18z"/>
<path d="M3340 2110 c9 -16 8 -20 -6 -20 -10 0 -15 -3 -11 -6 3 -4 13 -4 21
-1 15 6 11 47 -6 47 -5 0 -4 -9 2 -20z"/>
<path d="M2969 2118 c-9 -32 -6 -44 11 -44 25 0 25 5 3 23 -17 14 -17 14 0 9
9 -3 17 -1 17 4 0 8 -28 15 -31 8z"/>
<path d="M3016 2113 c-12 -12 -6 -33 9 -33 8 0 15 6 15 14 0 17 -14 28 -24 19z"/>
<path d="M3063 2105 c-3 -9 -3 -18 -1 -21 3 -3 8 4 11 16 6 23 -1 27 -10 5z"/>
<path d="M3110 2100 c0 -11 4 -20 8 -20 4 0 8 9 8 20 0 11 -4 20 -8 20 -4 0
-8 -9 -8 -20z"/>
<path d="M3160 2101 c0 -25 6 -27 13 -6 4 8 2 17 -3 20 -6 4 -10 -3 -10 -14z"/>
<path d="M3216 2113 c-12 -12 -6 -33 9 -33 8 0 15 6 15 14 0 17 -14 28 -24 19z"/>
<path d="M3269 2118 c-10 -33 1 -52 16 -28 3 6 1 10 -5 10 -6 0 -8 5 -5 10 3
6 4 10 1 10 -3 0 -6 -1 -7 -2z"/>
<path d="M3091 2094 c0 -11 3 -14 6 -6 3 7 2 16 -1 19 -3 4 -6 -2 -5 -13z"/>
<path d="M3141 2094 c0 -11 3 -14 6 -6 3 7 2 16 -1 19 -3 4 -6 -2 -5 -13z"/>
<path d="M3191 2094 c0 -11 3 -14 6 -6 3 7 2 16 -1 19 -3 4 -6 -2 -5 -13z"/>
</g>
</svg>
